<svg xmlns="http://www.w3.org/2000/svg" viewBox="0 0 512 512"><rect width="512" height="512" rx="112" fill="#101216"/><path d="M84 428c50-40 94 24 148-14" fill="none" stroke="#ff6a3d" stroke-width="16" stroke-linecap="round" opacity=".9"/><g transform="translate(262 232) rotate(-45) scale(1.16)"><path d="M-196 0L-150-15V15z" fill="#3a3d46"/><path d="M-196 0L-176-7.5V7.5z" fill="#eceef2"/><rect x="-150" y="-19" width="92" height="38" rx="8" fill="#ff6a3d"/><rect x="-136" y="-19" width="5" height="38" fill="#101216" opacity=".28"/><rect x="-118" y="-19" width="5" height="38" fill="#101216" opacity=".28"/><rect x="-100" y="-19" width="5" height="38" fill="#101216" opacity=".28"/><rect x="-58" y="-24" width="10" height="48" rx="3" fill="#a9afba"/><rect x="-48" y="-21" width="224" height="42" rx="12" fill="#eceef2"/><rect x="-48" y="2" width="224" height="19" rx="9" fill="#c5c9d1"/><rect x="-14" y="-17" width="62" height="11" rx="5.5" fill="#6f7683"/><rect x="64" y="-17" width="62" height="11" rx="5.5" fill="#6f7683"/><rect x="176" y="-18" width="22" height="36" rx="9" fill="#a9afba"/></g></svg>
